<svg xmlns="http://www.w3.org/2000/svg" x="0px" y="0px" width="100" height="100" viewBox="0,0,256,256">
<g fill="none" fill-rule="nonzero" stroke="none" stroke-width="none" stroke-linecap="none" stroke-linejoin="none" stroke-miterlimit="10" stroke-dasharray="" stroke-dashoffset="0" font-family="none" font-weight="none" font-size="none" text-anchor="none" style="mix-blend-mode: normal"><g transform="scale(4,4)"><path d="M10.814,11.264l3.267,37.028c0.142,1.608 1.237,2.974 2.776,3.462l11.784,3.734c2.185,0.692 4.531,0.692 6.716,0l11.784,-3.734c1.539,-0.488 2.634,-1.853 2.776,-3.462l3.267,-37.028c0.156,-1.754 -1.226,-3.264 -2.987,-3.264h-36.394c-1.761,0 -3.143,1.51 -2.989,3.264z" fill="#ff6200" stroke="none" stroke-width="1" stroke-linecap="butt" stroke-linejoin="miter"></path><path d="M47.142,51.753c1.539,-0.488 2.634,-1.853 2.776,-3.462l1.434,-16.255c-2.739,-0.248 -5.177,1.79 -5.42,4.541l-0.878,9.946c-0.035,0.402 -0.309,0.743 -0.694,0.865l-7.704,2.441c-2.469,0.782 -4.09,3.28 -3.565,5.816c0.021,0.101 0.061,0.191 0.087,0.289c0.736,-0.078 1.467,-0.223 2.18,-0.449z" fill="#000000" stroke="none" stroke-width="1" stroke-linecap="butt" stroke-linejoin="miter" opacity="0.15"></path><path d="M10.814,11.264l2.182,24.731c0.865,-0.079 1.761,-0.417 2.691,-1.397c1.317,-1.388 1.912,-3.315 1.744,-5.221l-1.349,-15.288c-0.051,-0.586 0.41,-1.089 0.997,-1.089h5.921c2.761,0 4.997,-2.239 4.997,-5h-14.194c-1.761,0 -3.144,1.51 -2.989,3.264z" fill="#ffffff" stroke="none" stroke-width="1" stroke-linecap="butt" stroke-linejoin="miter" opacity="0.3"></path><path d="M32,15v33.334c0,1.333 1.28,2.293 2.56,1.92l9.204,-2.682c0.793,-0.231 1.363,-0.927 1.433,-1.75l2.618,-30.652c0.1,-1.167 -0.821,-2.17 -1.993,-2.17h-11.822c-1.105,0 -2,0.895 -2,2z" fill="#ffce29" stroke="none" stroke-width="1" stroke-linecap="butt" stroke-linejoin="miter"></path><path d="M32,33v-5h9.928c0.58,0 1.038,0.491 0.998,1.069l-0.9,12.986c-0.028,0.405 -0.298,0.753 -0.684,0.88l-9.342,3.086v-5.325l5.179,-1.775l0.379,-5.898zM43.312,22.075l0.227,-2.999c0.045,-0.581 -0.415,-1.076 -0.997,-1.076h-10.542l-0.014,4.986l10.328,0.013c0.523,0.001 0.959,-0.402 0.998,-0.924z" fill="#ffffff" stroke="none" stroke-width="1" stroke-linecap="butt" stroke-linejoin="miter"></path><path d="M32,40.716v5.305l-9.344,-3.075c-0.384,-0.126 -0.654,-0.472 -0.685,-0.875l-0.375,-4.99c-0.044,-0.58 0.415,-1.075 0.997,-1.075h3.057c0.519,0 0.952,0.397 0.996,0.914l0.174,2.027zM25.811,22.991h6.189v-4.982h-10.434c-0.575,0 -1.032,0.484 -0.998,1.059l0.766,13.001c0.031,0.529 0.469,0.941 0.998,0.941h9.668v-5.006h-5.811z" fill="#eeeeee" stroke="none" stroke-width="1" stroke-linecap="butt" stroke-linejoin="miter"></path><ellipse cx="32" cy="61" rx="20" ry="3" fill="#000000" stroke="none" stroke-width="1" stroke-linecap="butt" stroke-linejoin="miter" opacity="0.3"></ellipse><path d="M14.857,17.256l-0.508,-5.756h4.718" fill="none" stroke="#ffffff" stroke-width="3" stroke-linecap="round" stroke-linejoin="round"></path></g></g>
</svg>