<svg xmlns="http://www.w3.org/2000/svg" x="0px" y="0px" width="100" height="100" viewBox="0,0,256,256">
<defs><linearGradient x1="32" y1="54" x2="32" y2="10" gradientUnits="userSpaceOnUse" id="color-1_AU6Wc7r56Fxz_gr1"><stop offset="0" stop-color="#07228c"></stop><stop offset="1" stop-color="#b1cedf"></stop></linearGradient><linearGradient x1="32" y1="58" x2="32" y2="6" gradientUnits="userSpaceOnUse" id="color-2_AU6Wc7r56Fxz_gr2"><stop offset="0" stop-color="#2b8adf"></stop><stop offset="1" stop-color="#dde3ef"></stop></linearGradient></defs><g fill="none" fill-rule="nonzero" stroke="none" stroke-width="1" stroke-linecap="butt" stroke-linejoin="miter" stroke-miterlimit="10" stroke-dasharray="" stroke-dashoffset="0" font-family="none" font-weight="none" font-size="none" text-anchor="none" style="mix-blend-mode: normal"><g transform="scale(4,4)"><path d="M54,32c0,5.75 -2.2,10.98 -5.8,14.9l-0.171,0.187l-5.029,-6.441v-19.646h-7v10.686l-8.337,-10.686h-6.663v22h7v-10.41l14.66,18.66c-3.15,1.75 -6.79,2.75 -10.66,2.75c-12.15,0 -22,-9.85 -22,-22c0,-12.15 9.85,-22 22,-22c12.15,0 22,9.85 22,22z" fill="url(#color-1_AU6Wc7r56Fxz_gr1)"></path><path d="M32,58c-14.337,0 -26,-11.664 -26,-26c0,-14.336 11.663,-26 26,-26c14.337,0 26,11.664 26,26c0,14.336 -11.663,26 -26,26zM32,8c-13.233,0 -24,10.767 -24,24c0,13.233 10.767,24 24,24c13.233,0 24,-10.767 24,-24c0,-13.233 -10.767,-24 -24,-24zM41,41.336v-18.336h-3v14.496l-11.317,-14.496h-3.683v18h3v-14.19l18.37,23.39c0.771,-0.523 1.509,-1.097 2.212,-1.714z" fill="url(#color-2_AU6Wc7r56Fxz_gr2)"></path></g></g>
</svg>