<svg xmlns="http://www.w3.org/2000/svg" fill="#e5e7eb" viewBox="-1 -1 128 128" height="128" width="128"><g id="user-collaborate-group"><path id="Ellipse 366" stroke="#ffffff" d="M105 86.625a13.125 13.125 0 1 1 -26.25 0 13.125 13.125 0 0 1 26.25 0Z" stroke-width="2"></path><path id="Ellipse 367" stroke="#ffffff" d="M70.875 120.75v-7.875s7.875 -5.25 21 -5.25 21 5.25 21 5.25V120.75" stroke-width="2"></path><path id="Vector 1165" stroke="#ffffff" d="M55.125 105 26.25 105l0 -28.875" stroke-width="2"></path><path id="Vector 1166" stroke="#ffffff" d="M99.75 49.875 99.75 21l-28.875 0" stroke-width="2"></path><path id="Ellipse 362" stroke="#ffffff" d="M47.25 23.625a13.125 13.125 0 1 1 -26.25 0 13.125 13.125 0 0 1 26.25 0Z" stroke-width="2"></path><path id="Ellipse 363" stroke="#ffffff" d="M13.125 57.75V49.875s7.875 -5.25 21 -5.25 21 5.25 21 5.25V57.75" stroke-width="2"></path></g></svg>